<svg width="56" height="56" viewBox="0 0 56 56" fill="none" xmlns="http://www.w3.org/2000/svg">
<g clip-path="url(#clip0)">
<path d="M52.0256 32.7545C52.0256 32.2197 51.5922 31.7857 51.0568 31.7857C50.5214 31.7857 50.0886 32.2197 50.0886 32.7545C50.0886 39.1973 45.6498 44.6536 39.4342 46.001V43.0409C44.4416 41.7473 48.151 37.1916 48.151 31.7857V17.2573C48.151 10.8483 42.9375 5.63416 36.5284 5.63416C30.1188 5.63416 24.9053 10.8483 24.9053 17.2573V31.7857C24.9053 37.1916 28.6152 41.7473 33.6226 43.0409V46.001C27.4059 44.6536 22.9683 39.1984 22.9683 32.7539C22.9683 32.2191 22.5349 31.7857 21.9995 31.7857C21.4641 31.7857 21.0312 32.2191 21.0312 32.7539C21.0312 40.2609 26.3014 46.5923 33.6226 47.9757V50.1887H29.7481C27.0784 50.1887 24.9053 52.3612 24.9053 55.0315C24.9053 55.5663 25.3387 55.9997 25.874 55.9997H47.1828C47.7182 55.9997 48.151 55.5663 48.151 55.0315C48.151 52.3612 45.9785 50.1887 43.3082 50.1887H39.4342V47.9751C46.7549 46.5918 52.0256 40.2592 52.0256 32.7545ZM26.891 32.7545H31.6856C32.221 32.7545 32.6544 32.3205 32.6544 31.7857C32.6544 31.2509 32.221 30.8175 31.6856 30.8175H26.8428V27.9117H31.6856C32.221 27.9117 32.6544 27.4777 32.6544 26.9429C32.6544 26.4081 32.221 25.9741 31.6856 25.9741H26.8428V23.0689H31.6856C32.221 23.0689 32.6544 22.6349 32.6544 22.1001C32.6544 21.5653 32.221 21.1313 31.6856 21.1313H26.8428V18.2255H31.6856C32.221 18.2255 32.6544 17.7921 32.6544 17.2573C32.6544 16.7225 32.221 16.2885 31.6856 16.2885H26.891C27.3788 11.4008 31.5149 7.57172 36.5284 7.57172C41.5419 7.57172 45.6781 11.4008 46.1658 16.2885H41.3712C40.8358 16.2885 40.4024 16.7225 40.4024 17.2573C40.4024 17.7921 40.8358 18.2255 41.3712 18.2255H46.214V21.1313H41.3712C40.8358 21.1313 40.4024 21.5653 40.4024 22.1001C40.4024 22.6349 40.8358 23.0689 41.3712 23.0689H46.214V25.9741H41.3712C40.8358 25.9741 40.4024 26.4081 40.4024 26.9429C40.4024 27.4777 40.8358 27.9117 41.3712 27.9117H46.214V30.8175H41.3712C40.8358 30.8175 40.4024 31.2509 40.4024 31.7857C40.4024 32.3205 40.8358 32.7545 41.3712 32.7545H46.1658C45.7363 37.0619 42.4719 40.5446 38.2715 41.3117H38.2698C37.7039 41.4148 37.1231 41.4713 36.5284 41.4713C31.5149 41.4713 27.3788 37.6422 26.891 32.7545ZM43.3082 52.1257C44.5713 52.1257 45.6482 52.9354 46.0483 54.0632H27.008C27.4081 52.9354 28.4855 52.1257 29.7481 52.1257H34.5909C35.1262 52.1257 35.5596 51.6923 35.5596 51.1574V43.3651C35.8789 43.3917 36.2014 43.4089 36.5279 43.4089C36.8543 43.4089 37.1769 43.3917 37.4966 43.3651V51.1574C37.4966 51.6923 37.9301 52.1257 38.4654 52.1257H43.3082Z" fill="#F45D48"/>
<path d="M45.7977 5.75114C46.6307 5.99722 47.3407 6.48106 47.8522 7.15056C48.3688 7.82671 48.6498 8.64751 48.6631 9.52374C48.6714 10.0536 49.1037 10.4776 49.6318 10.4776H49.6468C50.1811 10.4692 50.6084 10.0286 50.6001 9.49381C50.5801 8.1997 50.1622 6.98318 49.3924 5.97505C48.6293 4.97634 47.5751 4.2564 46.3464 3.89394C45.8343 3.74319 45.2956 4.03638 45.1432 4.54848C44.9919 5.06114 45.2851 5.59984 45.7977 5.75114Z" fill="#F45D48"/>
<path d="M52.4822 3.61295C51.1183 1.82946 49.1641 0.555856 46.9799 0.0265734C46.4606 -0.0970183 45.9369 0.219997 45.8111 0.740412C45.6853 1.26027 46.005 1.78401 46.5244 1.90982C48.3045 2.34045 49.832 3.33584 50.9426 4.78901C51.9846 6.1524 52.5427 7.78735 52.5582 9.51708C52.5626 10.0491 52.9949 10.477 53.5264 10.477H53.5347C54.0695 10.4726 54.4996 10.0353 54.4952 9.4999C54.4763 7.34786 53.7802 5.31219 52.4822 3.61295Z" fill="#F45D48"/>
<path d="M16.8048 1.07523L13.9505 3.93114C13.572 4.30912 13.572 4.92265 13.9505 5.30063C14.1395 5.48962 14.3873 5.58439 14.635 5.58439C14.8827 5.58439 15.131 5.48962 15.32 5.30063L18.1748 2.44472C18.5528 2.06674 18.5528 1.45321 18.1748 1.07523C17.7963 0.697253 17.1833 0.697253 16.8048 1.07523Z" fill="#F45D48"/>
<path d="M11.0945 6.78593L8.2391 9.64184C7.86057 10.0198 7.86057 10.6328 8.2391 11.0113C8.42809 11.2003 8.67583 11.2951 8.92357 11.2951C9.1713 11.2951 9.4196 11.2003 9.60858 11.0113L12.4639 8.15541C12.8425 7.77743 12.8425 7.16446 12.4639 6.78593C12.086 6.40795 11.473 6.40795 11.0945 6.78593Z" fill="#F45D48"/>
<path d="M9.60858 1.07523C9.23061 0.697253 8.61708 0.697253 8.2391 1.07523C7.86057 1.45377 7.86057 2.06674 8.2391 2.44472L11.0945 5.30063C11.284 5.48962 11.5317 5.58439 11.7795 5.58439C12.0272 5.58439 12.275 5.48962 12.4639 5.30063C12.8425 4.92209 12.8425 4.30912 12.4639 3.93114L9.60858 1.07523Z" fill="#F45D48"/>
<path d="M15.32 6.78593C14.9415 6.40795 14.3285 6.40795 13.9505 6.78593C13.572 7.16391 13.572 7.77743 13.9505 8.15541L16.8048 11.0113C16.9943 11.2003 17.2421 11.2951 17.4898 11.2951C17.7375 11.2951 17.9853 11.2003 18.1748 11.0113C18.5528 10.6333 18.5528 10.0198 18.1748 9.64184L15.32 6.78593Z" fill="#F45D48"/>
<path d="M5.53399 28.8799C3.39691 28.8799 1.65942 30.6179 1.65942 32.7545C1.65942 34.8904 3.39691 36.6285 5.53399 36.6285C7.67052 36.6285 9.40801 34.8904 9.40801 32.7545C9.40801 30.6179 7.67052 28.8799 5.53399 28.8799ZM5.53399 34.6915C4.46601 34.6915 3.59643 33.8224 3.59643 32.7545C3.59643 31.6859 4.46601 30.8174 5.53399 30.8174C6.60143 30.8174 7.471 31.6859 7.471 32.7545C7.471 33.8224 6.60143 34.6915 5.53399 34.6915Z" fill="#F45D48"/>
<path d="M16.1885 21.6158C16.1885 22.4183 15.5378 23.069 14.7353 23.069C13.9328 23.069 13.2827 22.4183 13.2827 21.6158C13.2827 20.8133 13.9328 20.1632 14.7353 20.1632C15.5378 20.1632 16.1885 20.8133 16.1885 21.6158Z" fill="#F45D48"/>
</g>
<defs>
<clipPath id="clip0">
<rect width="56" height="56" fill="white"/>
</clipPath>
</defs>
</svg>
